<svg xmlns="http://www.w3.org/2000/svg" width="1200" height="630" viewBox="0 0 1200 630" fill="none">
  <defs>
    <linearGradient id="bg" x1="0" y1="0" x2="1200" y2="630" gradientUnits="userSpaceOnUse">
      <stop stop-color="#14171d"/>
      <stop offset="1" stop-color="#1f2430"/>
    </linearGradient>
    <radialGradient id="glow" cx="0" cy="0" r="1" gradientUnits="userSpaceOnUse" gradientTransform="translate(980 120) rotate(90) scale(280 320)">
      <stop stop-color="#c47a2a" stop-opacity="0.22"/>
      <stop offset="1" stop-color="#c47a2a" stop-opacity="0"/>
    </radialGradient>
  </defs>
  <rect width="1200" height="630" fill="url(#bg)"/>
  <rect width="1200" height="630" fill="url(#glow)"/>
  <line x1="80" y1="548" x2="1120" y2="548" stroke="#c47a2a" stroke-width="3" stroke-opacity="0.85"/>
  <g transform="translate(900 72)">
    <rect x="0" y="0" width="120" height="120" rx="4" stroke="#e8e8ea" stroke-opacity="0.22" stroke-width="2"/>
    <path d="M98 2H118V22" stroke="#c47a2a" stroke-width="3" stroke-linecap="square"/>
    <circle cx="88" cy="38" r="22" stroke="#e8e8ea" stroke-opacity="0.35" stroke-width="2"/>
    <circle cx="88" cy="38" r="6" stroke="#c47a2a" stroke-width="2"/>
    <path d="M24 78H58V92H38V108H24V78Z" stroke="#e8e8ea" stroke-opacity="0.45" stroke-width="2"/>
    <path d="M62 72L74 66L71 76L64 90Z" fill="#c47a2a"/>
    <text x="60" y="58" text-anchor="middle" fill="#f0f1f4" font-family="Segoe UI, IBM Plex Sans, Arial, sans-serif" font-size="28" font-weight="700">‘›</text>
  </g>
  <text x="80" y="250" fill="#f0f1f4" font-family="Segoe UI, IBM Plex Sans, Arial, sans-serif" font-size="58" font-weight="700" letter-spacing="6">‘›•ž‘ť”ˇ‘š—Ł</text>
  <text x="82" y="318" fill="#c47a2a" font-family="Segoe UI, IBM Plex Sans, Arial, sans-serif" font-size="30" font-weight="600" letter-spacing="12">ś—§‘ťźĄˇ“•™ź</text>
  <text x="84" y="372" fill="#a8adb8" font-family="Segoe UI, IBM Plex Sans, Arial, sans-serif" font-size="22" letter-spacing="1">‘¸®˝± · ¤ĚÁ˝żÂ · ¦Á­¶± · “Á±˝¬¶ą± · śµÄ¬´żĂ·</text>
  <text x="84" y="572" fill="#8e939e" font-family="Segoe UI, IBM Plex Sans, Arial, sans-serif" font-size="18" letter-spacing="2">michalex-site.pages.dev</text>
</svg>
