<svg xmlns="http://www.w3.org/2000/svg" viewBox="0 0 40 40" fill="none">
  <rect x="2" y="2" width="36" height="36" rx="3" stroke="#e8e8ea" stroke-opacity="0.16" stroke-width="1"/>
  <path d="M30.5 2.5H38V10" stroke="#c47a2a" stroke-width="1.75" stroke-linecap="square"/>
  <path d="M2.5 30.5V38H10" stroke="#e8e8ea" stroke-opacity="0.1" stroke-width="1" stroke-linecap="square"/>
  <line x1="5.5" y1="32.5" x2="34.5" y2="32.5" stroke="#e8e8ea" stroke-opacity="0.12" stroke-width="0.75"/>
  <line x1="11" y1="31.75" x2="11" y2="33.25" stroke="#e8e8ea" stroke-opacity="0.18" stroke-width="0.5"/>
  <line x1="20" y1="31.75" x2="20" y2="33.25" stroke="#e8e8ea" stroke-opacity="0.18" stroke-width="0.5"/>
  <line x1="29" y1="31.75" x2="29" y2="33.25" stroke="#c47a2a" stroke-opacity="0.45" stroke-width="0.5"/>
  <line x1="20" y1="8" x2="20" y2="32.5" stroke="#e8e8ea" stroke-opacity="0.08" stroke-width="0.5" stroke-dasharray="1.5 2"/>
  <path d="M23.5 11.5H30.5V16.5H28V24.5H23.5V11.5Z" stroke="#e8e8ea" stroke-opacity="0.42" stroke-width="1" stroke-linejoin="miter" fill="none"/>
  <path d="M23.5 16.5H28" stroke="#e8e8ea" stroke-opacity="0.22" stroke-width="0.75"/>
  <path d="M23.5 20.5H26.5" stroke="#e8e8ea" stroke-opacity="0.14" stroke-width="0.5"/>
  <path d="M9 25.5L14 23.25L13.5 25.5L11.75 28.25Z" fill="#c47a2a" fill-opacity="0.92"/>
  <path d="M11.75 23.75L14 23" stroke="#c47a2a" stroke-width="1.35" stroke-linecap="square"/>
  <circle cx="23.5" cy="16.5" r="0.85" fill="#c47a2a" fill-opacity="0.85"/>
</svg>
